<?xml version="1.0" encoding="utf-8"?>
<!-- Generator: Adobe Illustrator 15.0.2, SVG Export Plug-In  -->
<!DOCTYPE svg PUBLIC "-//W3C//DTD SVG 1.1//EN" "http://www.w3.org/Graphics/SVG/1.1/DTD/svg11.dtd" [
	<!ENTITY ns_flows "http://ns.adobe.com/Flows/1.0/">
]>
<svg version="1.1"
	 xmlns="http://www.w3.org/2000/svg" xmlns:xlink="http://www.w3.org/1999/xlink" xmlns:a="http://ns.adobe.com/AdobeSVGViewerExtensions/3.0/"
	 x="0px" y="0px" width="176px" height="89px" viewBox="-1.488 -1.158 176 89"
	 overflow="visible" enable-background="new -1.488 -1.158 176 89" xml:space="preserve">
<defs>
</defs>
<g>
	<g>
		<path fill="#FFFFFF" d="M43.458,39.429c0,0-1.09,0.381-3.158,0.381c-3.977,0-6.154-2.179-6.154-6.916v-8.877
			c0-2.887-1.525-4.793-4.303-4.793c-2.723,0-4.029,2.125-4.41,4.085v8.44c0,1.525,0.49,2.342,2.178,2.342v5.338
			c0,0-1.144,0.381-3.158,0.381c-4.03,0-6.154-2.179-6.154-6.916v-8.877c0-2.887-1.525-4.793-4.303-4.793
			c-3.376,0-4.684,3.051-4.737,5.283v15.03H2.179V21.075c0-1.47-0.49-2.342-2.179-2.342v-5.336c0,0,1.089-0.382,3.104-0.382
			c2.832,0,4.792,1.362,5.228,3.812v0.654c0.763-2.232,2.94-4.52,7.788-4.52c4.139,0,6.697,1.852,8.005,4.574
			c0.817-2.179,2.94-4.574,7.843-4.574c6.643,0,9.312,4.683,9.312,10.4v8.387c0,1.525,0.49,2.342,2.179,2.342V39.429z"/>
		<path fill="#FFFFFF" d="M54.126,27.665v0.055c0,3.976,3.158,6.316,6.426,6.316c4.357,0,6.426-3.376,6.426-3.376l3.649,3.758
			c0,0-2.886,5.446-11.056,5.446c-7.188,0-12.58-4.629-12.58-13.397c0-8.44,4.193-13.505,12.472-13.505
			c8.114,0,10.674,5.555,10.674,8.822c0,5.281-3.921,6.697-10.021,6.697C56.577,28.481,54.126,27.665,54.126,27.665z M59.027,24.288
			c2.56,0,4.521-0.436,4.521-2.178c0-1.471-1.362-3.54-4.467-3.54c-2.832,0-4.792,1.798-4.792,4.738
			C54.289,23.309,55.813,24.288,59.027,24.288z"/>
		<path fill="#FFFFFF" d="M84.837,39.429c0,0-1.145,0.381-3.158,0.381c-3.977,0-6.154-2.179-6.154-6.916V0h7.134v31.749
			c0,1.525,0.545,2.342,2.179,2.342V39.429z"/>
		<path fill="#FFFFFF" d="M88.919,26.358c0-8.006,4.466-13.396,12.199-13.396c7.732,0,12.253,5.391,12.253,13.396
			c0,8.06-4.466,13.506-12.253,13.506C93.33,39.864,88.919,34.473,88.919,26.358z M106.292,26.413c0-4.575-1.635-7.244-5.174-7.244
			c-3.54,0-5.174,2.669-5.174,7.244c0,4.574,1.579,7.242,5.174,7.242C104.767,33.655,106.292,30.987,106.292,26.413z"/>
		<path fill="#FFFFFF" d="M144.462,39.429c0,0-1.143,0.381-3.158,0.381c-2.94,0-4.9-1.307-5.337-3.922v-0.326
			c-0.599,1.252-2.505,4.303-7.95,4.303c-5.065,0-10.512-4.085-10.512-13.397c0-9.748,5.609-13.505,11.328-13.505
			c4.684,0,6.154,2.45,6.316,2.723V0h7.135v31.641c0,1.634,0.49,2.45,2.178,2.45V39.429z M135.149,23.636
			c-0.054-1.145-1.416-4.467-5.173-4.467c-3.05,0-5.446,2.342-5.446,7.244c0,5.119,2.777,7.242,5.5,7.242
			c4.248,0,5.065-4.302,5.119-4.684V23.636z"/>
		<path fill="#FFFFFF" d="M172.722,40.735c0,7.461-4.738,12.253-12.253,12.253c-8.44,0-11.437-5.392-11.437-5.392l3.703-4.084
			c0,0,2.07,3.268,6.699,3.268c3.43,0,6.535-1.742,6.535-6.1v-4.847c-1.199,2.124-3.649,4.03-8.115,4.03
			c-6.045,0-8.332-3.812-8.332-9.477v-17.1h7.135v15.521c0,3.431,1.524,4.792,3.703,4.792c4.029,0,5.173-4.084,5.228-5.555V13.288
			h7.134V40.735z"/>
	</g>
</g>
<path fill="#FFFFFF" d="M27.506,86.261c0,0-1.215,0.527-2.8,0.527c-8.874,0-6.021-11.357-13.523-11.357H9.176v11.094H2.361V48.173
	h6.814v21.869h2.642c3.803,0,6.55-3.275,6.55-8.98h6.445c0,4.49-1.532,9.457-6.445,11.199c4.648,2.482,3.434,8.98,8.558,8.98h0.581
	V86.261z"/>
<path fill="#FFFFFF" d="M32.634,86.524V68.616c0-1.426-0.476-2.271-2.113-2.271v-5.178c0,0,0.898-0.369,2.854-0.369
	c2.693,0,4.701,1.268,5.177,3.908v0.635c0.687-2.166,2.694-4.596,7.554-4.596c2.642,0,4.015,1.004,4.015,1.004l-2.8,6.074
	c0,0-1.057-0.793-3.275-0.793c-3.222,0-4.437,2.854-4.543,4.914v14.58H32.634z"/>
<path fill="#FFFFFF" d="M77.591,86.419c0,0-1.109,0.369-3.011,0.369c-2.906,0-4.755-1.268-5.178-3.855v-0.371
	c-0.476,1.004-2.377,4.279-7.765,4.279c-4.966,0-10.143-3.961-10.143-12.996c0-9.455,5.018-13.1,10.564-13.1
	c4.227,0,6.498,2.377,7.343,3.064v-2.748h6.075V78.97c0,1.479,0.476,2.271,2.113,2.271V86.419z M68.558,71.099
	c-0.053-0.951-1.268-4.332-5.071-4.332c-2.958,0-5.177,2.271-5.177,7.025c0,4.967,2.641,7.027,5.229,7.027
	c4.332,0,4.966-4.543,5.019-4.332V71.099z"/>
<path fill="#FFFFFF" d="M123.605,86.419c0,0-1.057,0.369-3.063,0.369c-3.856,0-5.97-2.113-5.97-6.709v-8.611
	c0-2.799-1.479-4.648-4.173-4.648c-2.642,0-3.909,2.061-4.279,3.963v8.188c0,1.479,0.476,2.271,2.113,2.271v5.178
	c0,0-1.109,0.369-3.063,0.369c-3.909,0-5.97-2.113-5.97-6.709v-8.611c0-2.799-1.479-4.648-4.173-4.648
	c-3.275,0-4.544,2.959-4.597,5.125v14.58h-6.867V68.616c0-1.426-0.476-2.271-2.113-2.271v-5.178c0,0,1.057-0.369,3.012-0.369
	c2.747,0,4.648,1.32,5.071,3.697v0.635c0.739-2.166,2.853-4.385,7.554-4.385c4.015,0,6.498,1.795,7.766,4.438
	c0.792-2.113,2.853-4.438,7.607-4.438c6.444,0,9.033,4.543,9.033,10.09v8.135c0,1.479,0.475,2.271,2.112,2.271V86.419z"/>
<path fill="#FFFFFF" d="M133.966,75.009v0.053c0,3.855,3.063,6.127,6.233,6.127c4.226,0,6.233-3.275,6.233-3.275l3.539,3.645
	c0,0-2.8,5.283-10.724,5.283c-6.973,0-12.202-4.49-12.202-12.996c0-8.188,4.067-13.1,12.097-13.1c7.871,0,10.354,5.389,10.354,8.557
	c0,5.125-3.803,6.498-9.72,6.498C136.343,75.8,133.966,75.009,133.966,75.009z M138.72,71.733c2.483,0,4.385-0.424,4.385-2.113
	c0-1.428-1.32-3.434-4.332-3.434c-2.746,0-4.648,1.742-4.648,4.596C134.124,70.782,135.604,71.733,138.72,71.733z"/>
<path fill="#FFFFFF" d="M155.733,86.524V68.616c0-1.426-0.476-2.271-2.113-2.271v-5.178c0,0,0.898-0.369,2.854-0.369
	c2.693,0,4.701,1.268,5.177,3.908v0.635c0.687-2.166,2.694-4.596,7.554-4.596c2.642,0,4.015,1.004,4.015,1.004l-2.8,6.074
	c0,0-1.057-0.793-3.275-0.793c-3.222,0-4.437,2.854-4.543,4.914v14.58H155.733z"/>
</svg>
